<svg width="24" height="24" viewBox="0 0 24 24" fill="none" stroke="currentColor" stroke-width="2" stroke-linecap="round" stroke-linejoin="round" xmlns="http://www.w3.org/2000/svg">
<path d="M6 2 V22" />
<path d="M6 2 C20 2, 20 22, 6 22" />
<path d="M 12.5 12.0 L 12.5 12.5 12.4 12.9 12.1 13.4 11.7 13.7 11.1 13.9 10.6 13.9 10.0 13.8 9.4 13.4 9.0 12.9 8.7 12.3 8.6 11.6 8.8 10.9 9.2 10.3 9.7 9.7 10.4 9.4 11.2 9.2 12.1 9.4 12.9 9.7 13.5 10.3 14.0 11.1 14.2 12.1 14.1 13.0 13.7 13.9 13.1 14.7 12.2 15.3 11.2 15.6 10.1 15.5 9.1 15.2 8.1 14.5 7.4 13.6 7.1 12.5 7.0 11.3 7.3 10.1 8.0 9.0 9.0 8.2 10.1 7.7 11.5 7.6 12.8 7.8 14.0 8.5 15.0 9.5 15.6 10.7 15.9 12.2 15.7 13.6 15.0 15.0 14.0 16.1 12.7 16.9 11.2 17.3 9.6 17.2 8.1 16.6 6.8 15.6 5.9 14.2 5.4 12.6 5.4 10.9 5.9 9.3 6.9 7.8 8.2 6.7 9.9 6.0 11.7 5.9 13.5 6.3" />
</svg>