<svg width="24" height="24" viewBox="0 0 24 24" fill="none" stroke="currentColor" stroke-width="2" stroke-linecap="round" stroke-linejoin="round" xmlns="http://www.w3.org/2000/svg">
<path d="M 6 2 L 7.5 2 L 7.0 3 L 5.9 4 L 4.9 5 L 4.5 6 L 5.1 7 L 6.2 8 L 7.2 9 L 7.5 10 L 6.9 11 L 5.7 12 L 4.8 13 L 4.5 14 L 5.2 15 L 6.3 16 L 7.3 17 L 7.4 18 L 6.7 19 L 5.6 20 L 4.7 21 L 4.6 22" />
<path d="M 12.0 2.0 L 13.4 1.8 L 14.8 2.0 L 16.2 2.5 L 17.5 3.4 L 18.6 4.5 L 19.5 6.0 L 20.1 7.7 L 20.3 9.4 L 20.3 11.1 L 20.0 12.8 L 19.4 14.4 L 18.8 15.8 L 18.0 17.0 L 17.2 18.1 L 16.3 19.1 L 15.4 20.0 L 14.3 20.7 L 13.2 21.3 L 12.0 21.7" />
</svg>